<?xml version="1.0" encoding="UTF-8" standalone="no"?>
<svg
   height="800"
   width="1200"
   viewBox="-4.583124 -1.400475 39.720408 8.40285"
   version="1.1"
   id="svg534"
   xmlns="http://www.w3.org/2000/svg"
   xmlns:svg="http://www.w3.org/2000/svg">
  <defs
     id="defs538" />
  <path
     d="m 16.39609,3.43334 -0.44168,0.0526 c -0.38417,0.0476 -0.72072,0.18415 -0.72072,0.51012 0,0.23142 0.19967,0.38947 0.45755,0.38947 0.30515,0 0.55739,-0.20003 0.71543,-0.40005 v -0.5521 z m 0.0053,1.40441 V 4.5065 c -0.1577,0.18415 -0.41028,0.3997 -0.8576,0.3997 -0.51541,0 -0.94157,-0.32632 -0.94157,-0.8837 0,-0.67876 0.63641,-0.9257 1.2573,-0.99414 l 0.242,-0.0265 c 0.23672,-0.0212 0.32068,-0.1524 0.32068,-0.31009 0,-0.19473 -0.1838,-0.33655 -0.46249,-0.33655 -0.32103,0 -0.63147,0.23107 -0.74718,0.41522 l -0.3683,-0.43639 c 0.22613,-0.29492 0.62618,-0.49988 1.14688,-0.49988 0.6731,0 1.06256,0.34713 1.06256,0.9257 V 4.8377 Z m 1.87741,1.8e-4 h -0.647 v -2.9351 h 0.647 v 0.33125 c 0.23141,-0.2106 0.57855,-0.40005 0.95743,-0.40005 0.34713,0 0.8202,0.20038 0.8202,0.91546 V 4.83793 H 19.4098 V 2.91776 c 0,-0.28928 -0.121,-0.53657 -0.42087,-0.53657 -0.2473,0 -0.56268,0.21025 -0.71014,0.34748 z m 4.0546,-2.93526 h 0.647 V 4.83778 H 22.31224 V 4.5224 c -0.17886,0.16827 -0.46813,0.38382 -0.84702,0.38382 -0.37853,0 -0.90452,-0.20003 -0.90452,-0.93627 V 1.90267 h 0.647 v 1.85667 c 0,0.3422 0.14746,0.57891 0.45226,0.57891 0.25258,0 0.4893,-0.16334 0.67345,-0.3683 z m 2.00844,2.93526 h -0.647 V 0.97678 l 0.647,-0.6417 z m 1.3884,-7e-5 H 25.05678 V 1.90274 h 0.67346 z M 25.39369,0.5823 c 0.22083,0 0.40992,0.18415 0.40992,0.41028 0,0.22613 -0.18909,0.41557 -0.40992,0.41557 -0.22649,0 -0.41593,-0.18944 -0.41593,-0.41557 0,-0.22613 0.18944,-0.41028 0.41593,-0.41028 m 2.3876,1.85684 h -0.6156 v 2.3989 H 26.51905 V 2.43914 H 26.12429 V 1.90257 h 0.39476 V 1.29755 c 0,-0.484 0.31009,-0.9204 0.9204,-0.9204 0.28398,0 0.5207,0.0787 0.66251,0.1524 L 27.897,1.03473 C 27.80739,0.98213 27.67087,0.9296 27.53928,0.9296 c -0.20532,0 -0.3736,0.1524 -0.3736,0.405 v 0.56797 h 0.768 z m 2.09317,0.61017 c 0,-0.35736 -0.22613,-0.69427 -0.62054,-0.69427 -0.37853,0 -0.67345,0.35772 -0.68403,0.69427 z m -1.32539,0.4946 c 0.0053,0.47342 0.34713,0.80997 0.75212,0.80997 0.30516,0 0.62054,-0.20496 0.75742,-0.45226 l 0.40499,0.37853 c -0.23672,0.34713 -0.69427,0.62583 -1.22555,0.62583 -0.83644,0 -1.35714,-0.63112 -1.35714,-1.536 0,-0.87277 0.56268,-1.53564 1.37795,-1.53564 0.77858,0 1.32574,0.51012 1.29399,1.70956 z M 10.88969,4.83793 H 10.18484 V 0.7637 h 0.7627 L 12.147,2.76818 h 0.01058 L 13.35137,0.7637 h 0.74718 v 4.07423 h -0.7105 V 1.95256 h -0.01022 l -1.2365,2.05176 -1.24106,-2.05176 h -0.01058 z"
     id="path530" />
  <path
     d="m 4.07395,1.01861 v 4.5833 L 5.09242,4.58308 V 1.4e-4 Z M 2.03705,5.60176 3.0555,4.5833 V 0 L 2.03705,1.01847 Z M 0,5.60176 1.01847,4.5833 V 0 L 0,1.01847 Z"
     fill="#00ac5b"
     id="path532" />
</svg>
