<?xml version="1.0" encoding="UTF-8" standalone="no"?>
<svg
   viewBox="0 0 228.66 39.08"
   version="1.1"
   id="svg11283"
   sodipodi:docname="navbar-logo-Cloud-9.svg"
   inkscape:version="1.2.2 (732a01da63, 2022-12-09)"
   inkscape:export-filename="navbar-logo-Cloud-9.png"
   inkscape:export-xdpi="96"
   inkscape:export-ydpi="96"
   xmlns:inkscape="http://www.inkscape.org/namespaces/inkscape"
   xmlns:sodipodi="http://sodipodi.sourceforge.net/DTD/sodipodi-0.dtd"
   xmlns="http://www.w3.org/2000/svg"
   xmlns:svg="http://www.w3.org/2000/svg">
  <defs
     id="defs11287">
    <inkscape:perspective
       sodipodi:type="inkscape:persp3d"
       inkscape:vp_x="-11.412403 : 18.216823 : 1"
       inkscape:vp_y="0 : 1000 : 0"
       inkscape:vp_z="217.2476 : 18.216823 : 1"
       inkscape:persp3d-origin="102.9176 : 11.70349 : 1"
       id="perspective36351" />
  </defs>
  <sodipodi:namedview
     id="namedview11285"
     pagecolor="#ffffff"
     bordercolor="#000000"
     borderopacity="0.25"
     inkscape:showpageshadow="2"
     inkscape:pageopacity="0.0"
     inkscape:pagecheckerboard="0"
     inkscape:deskcolor="#d1d1d1"
     showgrid="false"
     inkscape:zoom="6.0460538"
     inkscape:cx="100.80956"
     inkscape:cy="39.447218"
     inkscape:window-width="1920"
     inkscape:window-height="991"
     inkscape:window-x="-9"
     inkscape:window-y="-9"
     inkscape:window-maximized="1"
     inkscape:current-layer="svg11283" />
  <style
     id="style11253">.cls-1{fill:#fed136;}</style>
  <text
     xml:space="preserve"
     style="font-size:29.7749px;line-height:1.5;font-family:Consolas;-inkscape-font-specification:Consolas;text-align:center;text-anchor:middle;display:inline;fill:#e4faff;fill-opacity:0.953757;stroke-width:0.70586"
     x="122.90205"
     y="31.522545"
     id="text8271"
     transform="scale(0.93635473,1.0679713)"><tspan
       sodipodi:role="line"
       id="tspan8269"
       style="font-style:normal;font-variant:normal;font-weight:normal;font-stretch:normal;font-size:29.7749px;font-family:'Lucida Handwriting';-inkscape-font-specification:'Lucida Handwriting';fill:#e4faff;fill-opacity:0.953757;stroke-width:0.70586"
       x="122.90205"
       y="31.522545">Cloud</tspan></text>
  <text
     xml:space="preserve"
     style="font-style:normal;font-variant:normal;font-weight:normal;font-stretch:normal;font-size:55.6336px;line-height:1.7;font-family:'Calisto MT';-inkscape-font-specification:'Calisto MT';text-align:center;text-anchor:middle;display:inline;fill:#008ac2;fill-opacity:0.95375705;stroke-width:0.434639;paint-order:stroke markers fill"
     x="142.38144"
     y="46.258873"
     id="text10292"
     transform="scale(1.3119889,0.76220157)"><tspan
       sodipodi:role="line"
       id="tspan10290"
       style="font-style:normal;font-variant:normal;font-weight:normal;font-stretch:normal;font-size:55.6336px;font-family:'Lucida Handwriting';-inkscape-font-specification:'Lucida Handwriting';fill:#008ac2;fill-opacity:0.95375705;stroke-width:0.434639"
       x="142.38144"
       y="46.258873">9</tspan></text>
  <path
     id="path1703"
     style="fill:#008dc3;fill-opacity:0.95375705;stroke-width:1.24806;paint-order:stroke markers fill"
     d="M 35.693359 3.3085938 A 17.647736 10.585417 0 0 0 18.044922 13.892578 A 17.647736 10.585417 0 0 0 18.060547 14.035156 A 17.647736 10.585417 0 0 1 20.791016 13.892578 A 17.647736 10.585417 0 0 1 34.623047 17.90625 A 17.647736 10.585417 0 0 1 47.46875 14.554688 A 17.647736 10.585417 0 0 1 53.205078 15.132812 A 17.647736 10.585417 0 0 0 53.339844 13.892578 A 17.647736 10.585417 0 0 0 35.693359 3.3085938 z M 53.205078 15.132812 A 17.647736 10.585417 0 0 1 38.431641 24.335938 A 17.647736 10.585417 0 0 1 38.4375 24.478516 A 17.647736 10.585417 0 0 1 33.646484 31.705078 A 17.647736 10.585417 0 0 0 47.46875 35.726562 A 17.647736 10.585417 0 0 0 65.117188 25.140625 A 17.647736 10.585417 0 0 0 53.205078 15.132812 z M 33.646484 31.705078 A 17.647736 10.585417 0 0 1 29.820312 25.140625 A 17.647736 10.585417 0 0 1 29.958984 23.880859 A 17.647736 10.585417 0 0 1 18.060547 14.035156 A 17.647736 10.585417 0 0 0 3.1425781 24.478516 A 17.647736 10.585417 0 0 0 20.791016 35.064453 A 17.647736 10.585417 0 0 0 33.646484 31.705078 z M 29.958984 23.880859 A 17.647736 10.585417 0 0 0 35.693359 24.478516 A 17.647736 10.585417 0 0 0 38.431641 24.335938 A 17.647736 10.585417 0 0 0 34.623047 17.90625 A 17.647736 10.585417 0 0 0 29.958984 23.880859 z " />
</svg>
