<?xml version="1.0" encoding="UTF-8" standalone="no"?>
<!-- Created with Inkscape (http://www.inkscape.org/) -->

<svg xmlns="http://www.w3.org/2000/svg" version="1.1" xmlns:xlink="http://www.w3.org/1999/xlink" xmlns:svgjs="http://svgjs.dev/svgjs" width="2000" height="1247" viewBox="0 0 2000 1247"><g transform="matrix(1,0,0,1,-1.2121212121212466,0.504858299595071)"><svg viewBox="0 0 396 247" data-background-color="#0c1d36" preserveAspectRatio="xMidYMid meet" height="1247" width="2000" xmlns="http://www.w3.org/2000/svg" xmlns:xlink="http://www.w3.org/1999/xlink">
  <defs
     id="defs2" />
  <g
     id="layer1">
    <path
       id="path117"
       style="fill:#d40000;fill-opacity:0.939306;stroke-width:0.264583"
       d="M 64.955213,87.577083 A 41.407291,41.407291 0 0 0 23.547917,128.98437 41.407291,41.407291 0 0 0 64.955213,170.39166 41.407291,41.407291 0 0 0 104.91504,139.82299 31.217607,30.427088 0 0 1 75.932313,159.01458 31.217607,30.427088 0 0 1 44.714583,128.5875 31.217607,30.427088 0 0 1 75.932313,98.160417 31.217607,30.427088 0 0 1 104.08357,115.43946 41.407291,41.407291 0 0 0 64.955213,87.577083 Z" />
    <text
       xml:space="preserve"
       style="font-size:16.9333px;line-height:1.7;font-family:Consolas;-inkscape-font-specification:Consolas;text-align:center;text-anchor:middle;fill:#0aaeff;fill-opacity:0.953757;stroke-width:0.264583"
       x="74.87709"
       y="134.40833"
       id="text8271"><tspan
         id="tspan8269"
         style="font-style:normal;font-variant:normal;font-weight:normal;font-stretch:normal;font-size:16.9333px;font-family:'Lucida Handwriting';-inkscape-font-specification:'Lucida Handwriting';fill:#0aaeff;fill-opacity:0.953757;stroke-width:0.264583"
         x="74.87709"
         y="134.40833">Cloud</tspan></text>
    <text
       xml:space="preserve"
       style="font-style:normal;font-variant:normal;font-weight:normal;font-stretch:normal;font-size:16.9333px;line-height:1.7;font-family:'Lucida Handwriting';-inkscape-font-specification:'Lucida Handwriting';text-align:center;text-anchor:middle;fill:#0aaaff;fill-opacity:0.953757;stroke-width:0.264583;paint-order:stroke markers fill"
       x="147.9021"
       y="132.29164"
       id="text10288"><tspan
         id="tspan10286"
         style="fill:#0aaaff;fill-opacity:0.953757;stroke-width:0.264583"
         x="147.9021"
         y="132.29164">uard</tspan></text>
    <text
       xml:space="preserve"
       style="font-style:normal;font-variant:normal;font-weight:normal;font-stretch:normal;font-size:33.8667px;line-height:1.7;font-family:'Lucida Handwriting';-inkscape-font-specification:'Lucida Handwriting';text-align:center;text-anchor:middle;fill:#0a0aff;fill-opacity:0.953757;stroke-width:0.264583;paint-order:stroke markers fill"
       x="112.44791"
       y="139.17082"
       id="text10292"><tspan
         id="tspan10290"
         style="font-size:33.8667px;fill:#d44200;fill-opacity:0.953757;stroke-width:0.264583"
         x="112.44791"
         y="139.17082">9</tspan></text>
  </g>
</svg>
