<svg xmlns="http://www.w3.org/2000/svg" version="1.1" xmlns:xlink="http://www.w3.org/1999/xlink" xmlns:svgjs="http://svgjs.dev/svgjs" width="2000" height="1247" viewBox="0 0 2000 1247"><g transform="matrix(1,0,0,1,-1.2121212121212466,0.504858299595071)"><svg viewBox="0 0 396 247" data-background-color="#0c1d36" preserveAspectRatio="xMidYMid meet" height="1247" width="2000" xmlns="http://www.w3.org/2000/svg" xmlns:xlink="http://www.w3.org/1999/xlink"><g id="tight-bounds" transform="matrix(1,0,0,1,0.2400000000000091,-0.09999999999999432)"><svg viewBox="0 0 395.52 247.2" height="247.2" width="395.52"><g><svg></svg></g><g><svg viewBox="0 0 395.52 247.2" height="247.2" width="395.52"><g><g><path d="M226.079 247.2c-23.543 0-44.392-5.093-62.547-15.28-18.155-10.187-32.394-24.539-42.716-43.056-4.326-7.794-7.741-16.162-10.247-25.104l42.096 0c0.675 1.786 1.4 3.544 2.175 5.273 6.067 13.401 15.076 24.041 27.029 31.919 11.953 7.833 26.757 11.749 44.414 11.749 11.636 0 22.23-1.268 31.783-3.803 9.598-2.535 18.925-5.954 27.98-10.255l4.074 34.771c-8.738 3.984-18.449 7.289-29.134 9.915-10.685 2.581-22.32 3.871-34.907 3.871zM121.087 58.336c10.458-18.517 24.924-32.869 43.396-43.056 18.427-10.187 39.412-15.28 62.955-15.28 12.224 0 23.724 1.29 34.499 3.871 10.73 2.626 20.125 5.976 28.183 10.051l-4.074 34.771c-8.512-4.075-17.635-7.47-27.369-10.187-9.734-2.716-20.26-4.075-31.579-4.075-17.884 0-32.824 3.939-44.822 11.817-11.998 7.878-21.075 18.517-27.233 31.919-0.794 1.729-1.537 3.487-2.229 5.273l-42.163 0c2.55-8.951 6.029-17.319 10.436-25.104z" fill="#ffffff" fill-rule="nonzero" stroke="none" stroke-width="1" stroke-linecap="butt" stroke-linejoin="miter" stroke-miterlimit="10" stroke-dasharray="" stroke-dashoffset="0" font-family="none" font-weight="none" font-size="none" text-anchor="none" style="mix-blend-mode: normal" data-fill-palette-color="tertiary"></path></g></g><g transform="matrix(1,0,0,1,0,96.3202961090548)"><svg viewBox="0 0 395.52 54.5594077818904" height="54.5594077818904" width="395.52"><g><svg viewBox="0 0 395.52 54.5594077818904" height="54.5594077818904" width="395.52"><g><svg viewBox="0 0 395.52 54.5594077818904" height="54.5594077818904" width="395.52"><g><svg viewBox="0 0 395.52 54.5594077818904" height="54.5594077818904" width="395.52"><g><svg viewBox="0 0 395.52 54.5594077818904" height="54.5594077818904" width="395.52"><g transform="matrix(1,0,0,1,0,0)"><svg width="395.52" viewBox="1.88 -37.5 276.9 38.2" height="54.5594077818904" data-palette-color="#f9cc0b"><path d="M19.65 0.7L19.65 0.7Q14.45 0.7 10.44-1.55 6.43-3.8 4.15-7.89 1.88-11.98 1.88-17.5L1.88-17.5Q1.88-23.03 4.19-27.11 6.5-31.2 10.58-33.45 14.65-35.7 19.85-35.7L19.85-35.7Q22.55-35.7 24.93-35.13 27.3-34.55 29.08-33.65L29.08-33.65 28.48-28.53Q26.6-29.43 24.45-30.03 22.3-30.63 19.8-30.63L19.8-30.63Q15.85-30.63 13.2-28.89 10.55-27.15 9.19-24.19 7.83-21.23 7.83-17.5L7.83-17.5Q7.83-13.78 9.16-10.81 10.5-7.85 13.14-6.11 15.78-4.38 19.68-4.38L19.68-4.38Q22.25-4.38 24.36-4.94 26.48-5.5 28.48-6.45L28.48-6.45 29.08-1.33Q27.15-0.45 24.79 0.13 22.43 0.7 19.65 0.7ZM41.77 0.5L39.97 0.5Q37.67 0.5 36.27-0.38 34.87-1.25 34.23-2.66 33.6-4.08 33.6-5.68L33.6-5.68 33.6-37.5 38.82-37.5 38.82-8.25Q38.82-6.2 39.09-5.24 39.35-4.28 40.11-4 40.87-3.73 42.37-3.73L42.37-3.73 41.77 0.5ZM56.72 0.5L56.72 0.5Q52.8 0.5 50.01-1.24 47.22-2.98 45.76-5.89 44.3-8.8 44.3-12.33L44.3-12.33Q44.3-15.88 45.76-18.8 47.22-21.73 50.01-23.46 52.8-25.2 56.72-25.2L56.72-25.2Q60.67-25.2 63.46-23.46 66.25-21.73 67.71-18.8 69.17-15.88 69.17-12.33L69.17-12.33Q69.17-8.8 67.71-5.89 66.25-2.98 63.46-1.24 60.67 0.5 56.72 0.5ZM56.72-3.98L56.72-3.98Q60.17-3.98 62.01-6.23 63.85-8.47 63.85-12.33L63.85-12.33Q63.85-16.2 62.01-18.48 60.17-20.75 56.72-20.75L56.72-20.75Q53.32-20.75 51.47-18.48 49.62-16.2 49.62-12.33L49.62-12.33Q49.62-8.47 51.47-6.23 53.32-3.98 56.72-3.98ZM83.14 0.5L83.14 0.5Q79.82 0.5 77.67-0.83 75.52-2.15 74.47-4.67 73.42-7.2 73.42-10.8L73.42-10.8 73.42-24.7 78.64-24.7 78.64-11.53Q78.64-7.8 79.91-5.9 81.17-4 84.04-4L84.04-4Q86.12-4 87.73-5 89.34-6 90.12-8.05L90.12-8.05 89.27-5.3 89.27-24.7 94.49-24.7 94.49 0 89.74 0 89.09-4.6 90.34-3.4Q89.27-1.6 87.43-0.55 85.59 0.5 83.14 0.5ZM110.34 0.5L110.34 0.5Q106.94 0.5 104.39-1.24 101.84-2.98 100.43-5.88 99.02-8.78 99.02-12.3L99.02-12.3Q99.02-15.73 100.35-18.66 101.69-21.6 104.23-23.39 106.77-25.18 110.34-25.18L110.34-25.18Q112.92-25.18 115.04-24.18 117.17-23.18 118.62-21.15L118.62-21.15 117.42-20.23 117.42-37.5 122.64-37.5 122.64 0 117.87 0 117.24-4.8 118.67-3.78Q117.32-1.7 115.19-0.6 113.07 0.5 110.34 0.5ZM111.19-3.98L111.19-3.98Q113.04-3.98 114.55-4.9 116.07-5.83 116.95-7.68 117.84-9.53 117.84-12.3L117.84-12.3Q117.84-14.95 116.95-16.84 116.07-18.73 114.55-19.71 113.04-20.7 111.19-20.7L111.19-20.7Q109.04-20.7 107.5-19.61 105.97-18.53 105.15-16.64 104.34-14.75 104.34-12.3L104.34-12.3Q104.34-9.95 105.15-8.06 105.97-6.18 107.5-5.08 109.04-3.98 111.19-3.98ZM135.96 0L135.96 0 132.21-3.25Q133.96-4.13 135.85-5.44 137.74-6.75 139.53-8.45 141.31-10.15 142.75-12.19 144.19-14.23 145.04-16.57 145.89-18.93 145.89-21.5L145.89-21.5 147.56-19Q146.34-16.73 143.97-15.35 141.61-13.98 138.19-13.98L138.19-13.98Q135.19-13.98 132.85-15.35 130.51-16.73 129.18-19.11 127.84-21.5 127.84-24.55L127.84-24.55Q127.84-27.85 129.28-30.35 130.71-32.85 133.3-34.27 135.89-35.7 139.34-35.7L139.34-35.7Q143.01-35.7 145.68-34.06 148.34-32.43 149.76-29.5 151.19-26.58 151.19-22.68L151.19-22.68Q151.19-18.65 149.81-15.11 148.44-11.58 146.2-8.66 143.96-5.75 141.29-3.55 138.61-1.35 135.96 0ZM139.31-18.68L139.31-18.68Q142.04-18.68 143.75-20.43 145.46-22.18 145.46-24.78L145.46-24.78Q145.46-27.48 143.75-29.24 142.04-31 139.31-31L139.31-31Q136.59-31 134.88-29.2 133.16-27.4 133.16-24.75L133.16-24.75Q133.16-22.18 134.88-20.43 136.59-18.68 139.31-18.68ZM173.09 0.7L173.09 0.7Q167.94 0.7 164.02-1.55 160.11-3.8 157.92-7.9 155.74-12 155.74-17.55L155.74-17.55Q155.74-23.05 158.07-27.14 160.41-31.23 164.51-33.46 168.61-35.7 173.91-35.7L173.91-35.7Q176.71-35.7 179.26-35.11 181.81-34.52 183.69-33.68L183.69-33.68 183.11-28.7Q181.14-29.53 178.86-30.08 176.59-30.63 173.99-30.63L173.99-30.63Q169.76-30.63 167.04-28.89 164.31-27.15 163-24.19 161.69-21.23 161.69-17.57L161.69-17.57Q161.69-13.75 163.02-10.78 164.36-7.8 167.09-6.09 169.81-4.38 173.96-4.38L173.96-4.38Q175.09-4.38 176.56-4.56 178.04-4.75 179.39-5.18L179.39-5.18 179.39-12.83 174.16-12.83 174.16-17.55 184.84-17.55 184.84-1.95Q182.86-0.85 179.84-0.08 176.81 0.7 173.09 0.7ZM199.38 0.5L199.38 0.5Q196.06 0.5 193.91-0.83 191.76-2.15 190.71-4.67 189.66-7.2 189.66-10.8L189.66-10.8 189.66-24.7 194.88-24.7 194.88-11.53Q194.88-7.8 196.15-5.9 197.41-4 200.28-4L200.28-4Q202.36-4 203.97-5 205.58-6 206.36-8.05L206.36-8.05 205.51-5.3 205.51-24.7 210.73-24.7 210.73 0 205.98 0 205.33-4.6 206.58-3.4Q205.51-1.6 203.67-0.55 201.83 0.5 199.38 0.5ZM222.28 0.5L222.28 0.5Q220.13 0.5 218.46-0.41 216.78-1.33 215.82-2.95 214.86-4.58 214.86-6.78L214.86-6.78Q214.86-8.88 215.81-10.36 216.76-11.85 218.33-12.85 219.91-13.85 221.79-14.44 223.68-15.03 225.63-15.3 227.58-15.58 229.26-15.6L229.26-15.6Q229.23-18.53 228.01-19.56 226.78-20.6 224.28-20.6L224.28-20.6Q222.78-20.6 221.21-20.16 219.63-19.73 217.66-18.53L217.66-18.53 217.06-22.78Q218.86-23.88 221.08-24.53 223.31-25.18 225.68-25.18L225.68-25.18Q228.66-25.18 230.61-24.13 232.56-23.08 233.53-20.65 234.51-18.23 234.51-14.15L234.51-14.15 234.51-8.4Q234.51-6.6 234.67-5.59 234.83-4.58 235.38-4.15 235.93-3.73 237.06-3.73L237.06-3.73 237.66-3.73 237.01 0.5 235.86 0.5Q234.01 0.5 232.87 0.1 231.73-0.3 231.03-1.04 230.33-1.78 229.86-2.8L229.86-2.8Q228.53-1.3 226.57-0.4 224.61 0.5 222.28 0.5ZM223.88-3.6L223.88-3.6Q225.28-3.6 226.77-4.3 228.26-5 229.28-6.25L229.28-6.25 229.28-12.05Q226.48-11.93 224.47-11.39 222.46-10.85 221.37-9.78 220.28-8.7 220.28-7.03L220.28-7.03Q220.28-5.23 221.23-4.41 222.18-3.6 223.88-3.6ZM246.48 0L241.08 0 241.08-24.7 245.68-24.7 246.05-21.25Q247.55-23.05 249.27-24.13 250.98-25.2 252.98-25.2L252.98-25.2Q253.58-25.2 254.1-25.08L254.1-25.08 253.65-19.65Q253.23-19.75 252.79-19.8 252.35-19.85 251.88-19.85L251.88-19.85Q250.08-19.85 248.59-19.04 247.1-18.23 246.48-17.2L246.48-17.2 246.48 0ZM266.48 0.5L266.48 0.5Q263.08 0.5 260.53-1.24 257.98-2.98 256.56-5.88 255.15-8.78 255.15-12.3L255.15-12.3Q255.15-15.73 256.49-18.66 257.83-21.6 260.36-23.39 262.9-25.18 266.48-25.18L266.48-25.18Q269.05-25.18 271.18-24.18 273.3-23.18 274.75-21.15L274.75-21.15 273.55-20.23 273.55-37.5 278.78-37.5 278.78 0 274 0 273.38-4.8 274.8-3.78Q273.45-1.7 271.33-0.6 269.2 0.5 266.48 0.5ZM267.33-3.98L267.33-3.98Q269.18-3.98 270.69-4.9 272.2-5.83 273.09-7.68 273.98-9.53 273.98-12.3L273.98-12.3Q273.98-14.95 273.09-16.84 272.2-18.73 270.69-19.71 269.18-20.7 267.33-20.7L267.33-20.7Q265.18-20.7 263.64-19.61 262.1-18.53 261.29-16.64 260.48-14.75 260.48-12.3L260.48-12.3Q260.48-9.95 261.29-8.06 262.1-6.18 263.64-5.08 265.18-3.98 267.33-3.98Z" opacity="1" transform="matrix(1,0,0,1,0,0)" fill="#ffffff" class="undefined-text-0" data-fill-palette-color="primary" id="text-0"></path></svg></g></svg></g></svg></g></svg></g></svg></g></svg></g></svg></g><defs></defs></svg><rect width="395.52" height="247.2" fill="none" stroke="none" visibility="hidden"></rect></g></svg></g></svg>