<?xml version="1.0" encoding="UTF-8" standalone="no"?>
<!-- Created with Inkscape (http://www.inkscape.org/) -->

<svg
   width="154.70258mm"
   height="82.814575mm"
   viewBox="0 0 154.70258 82.814575"
   version="1.1"
   id="svg5"
   xmlns="http://www.w3.org/2000/svg"
   xmlns:svg="http://www.w3.org/2000/svg">
  <defs
     id="defs2" />
  <g
     id="layer1"
     transform="translate(-23.547917,-87.577085)">
    <path
       id="path117"
       style="fill:#06a49c;fill-opacity:0.939306;stroke-width:0.264583"
       d="M 64.955213,87.577083 A 41.407291,41.407291 0 0 0 23.547917,128.98437 41.407291,41.407291 0 0 0 64.955213,170.39166 41.407291,41.407291 0 0 0 104.91504,139.82299 31.217607,30.427088 0 0 1 75.932313,159.01458 31.217607,30.427088 0 0 1 44.714583,128.5875 31.217607,30.427088 0 0 1 75.932313,98.160417 31.217607,30.427088 0 0 1 104.08357,115.43946 41.407291,41.407291 0 0 0 64.955213,87.577083 Z" />
    <text
       xml:space="preserve"
       style="font-size:16.9333px;line-height:1.7;font-family:Consolas;-inkscape-font-specification:Consolas;text-align:center;text-anchor:middle;fill:#e30909;fill-opacity:0.953757;stroke-width:0.264583"
       x="109.00834"
       y="133.61458"
       id="text8271"><tspan
         id="tspan8269"
         style="font-style:normal;font-variant:normal;font-weight:normal;font-stretch:normal;font-size:16.9333px;font-family:'Lucida Handwriting';-inkscape-font-specification:'Lucida Handwriting';fill:#e30909;fill-opacity:0.953757;stroke-width:0.264583"
         x="109.00834"
         y="133.61458">Cloud9Guard</tspan></text>
  </g>
</svg>
